<?xml version="1.0" encoding="UTF-8"?>
<svg id="Layer_1" xmlns="http://www.w3.org/2000/svg" version="1.1" viewBox="0 0 1588.54 811.26">
  <!-- Generator: Adobe Illustrator 30.1.0, SVG Export Plug-In . SVG Version: 2.1.1 Build 136)  -->
  <defs>
    <style>
      .st0 {
        fill: #6b562b;
        font-family: ArialMT, Arial;
        font-size: 79.83px;
      }

      .st1 {
        fill: #9c965e;
      }

      .st2 {
        fill: #ad7659;
      }

      .st3 {
        fill: #e48967;
      }

      .st4 {
        fill: #55604a;
      }

      .st5 {
        fill: #207094;
      }

      .st6 {
        fill: #97403e;
      }

      .st7 {
        fill: #e77245;
      }

      .st8 {
        font-family: Bernstein-Serial-Medium-Regular, Bernstein-Serial-Medium;
        font-size: 376.63px;
      }

      .st8, .st9 {
        fill: #2c542f;
      }

      .st10 {
        fill: #4d6242;
      }

      .st11 {
        fill: none;
        stroke: #a8744f;
        stroke-miterlimit: 10;
        stroke-width: 12px;
      }

      .st12 {
        fill: #873c35;
      }

      .st13 {
        fill: #913f34;
      }

      .st14 {
        fill: #498c50;
      }

      .st15 {
        fill: #793332;
      }

      .st16 {
        fill: #0b0908;
      }

      .st17 {
        fill: #5b3c31;
      }

      .st18 {
        fill: #93925f;
      }

      .st19 {
        fill: #2aa1c6;
      }

      .st20 {
        fill: #53654e;
      }

      .st21 {
        fill: #875c4b;
      }

      .st22 {
        display: none;
        fill: #eae3d9;
      }

      .st23 {
        fill: #c45e43;
      }

      .st24 {
        fill: #ca9572;
      }

      .st25 {
        fill: #754f42;
        opacity: .66;
      }

      .st26 {
        fill: #bf5840;
      }
    </style>
  </defs>
  <rect class="st22" width="1588.54" height="811.26"/>
  <polyline class="st11" points="384.02 762.2 20.65 762.2 20.65 174.51 1567.2 174.51 1567.2 762.2 1208.02 762.2"/>
  <polyline class="st11" points="346.54 734.8 50.51 734.8 50.51 201.92 1537.34 201.92 1537.34 734.8 1241.88 734.8"/>
  <g id="Main_Tect">
    <text class="st8" transform="translate(100.17 612.85)"><tspan x="0" y="0">Littoral</tspan></text>
  </g>
  <g id="BOAT">
    <g id="Boat">
      <path class="st5" d="M1003.09,321.9c-12.96-.41-40.1-2.31-70.91-5.02-36.03-3.19-60.19-6.92-66.77-10.38-3.05-1.49-3.12-1.63-3.32-5.09-.2-3.33-.07-3.6,2.04-4.89,2.58-1.56,8.82-3.05,17.17-4.07,3.39-.41,8.55-1.02,11.6-1.43l5.43-.75-.27-1.97c-.27-1.9-.27-1.97,1.9-1.22,1.15.48,2.31,1.22,2.51,1.7.2.48,1.29.88,2.44.88,1.22-.07,4.48.75,7.26,1.7,11.4,4,35.35,9.84,50.21,12.21,9.43,1.49,37.46,4.95,48.86,5.97,15.13,1.36,70.84,1.15,86.18-.34,40.65-3.94,71.73-9.64,95.54-17.51l8.41-2.78,9.91,1.49c19.61,2.85,25.51,4.07,29.31,5.97,3.53,1.7,3.73,1.97,3.94,4.61.14,1.97-.14,3.05-1.02,3.8-1.7,1.56-11.33,4.27-20.97,5.9-14.93,2.58-62.09,7.26-104.09,10.31-9.7.68-98.87,1.36-115.36.88Z"/>
      <path class="st19" d="M792.42,344.74c-.68-7.87,105.56-1.27,74.86-27.87-30.7-26.59-149.03-5.54-158.73-13.13-9.7-7.59,7.05-11.26,14.3-11.95,29.51-2.82,59.02-5.63,88.53-8.45-14.4-2.76-24.23-3.42-38.63-6.19-2.96-.57-11.24-4.12-11.13-7.14.1-2.71,3.26-4.05,5.88-4.75,5.58-1.49,18.57,2.9,16.73-4.47-1.84-7.37-49.19-3.32-73.78-4.98-5.78-.39-12.66-1.51-15.01-6.8,44.64-8.08,92.31-15.86,134.04,1.92,27.06,11.53,49.72,33.2,78.38,39.84-14.61,2.73-43.15,1.79-43.82,8.19s6.27,7.45,11.33,8.26c121.87,19.64,346.24,5.5,363.88-2.89,17.64-8.39-36.31-15.22-36.31-15.22l77.18-49.68s46.44-.2,104.63,5.41c8.82,1.16,37.96,6.18,25.25,7.65-12.7,1.46-31.33,3.53-88.05,8.06,3.33,2.63,8.05,2.18,12.18,3.13s8.39,5.34,6.16,8.95c-1.18,1.91-3.63,2.53-5.84,2.99-12.4,2.56-24.79,5.11-37.19,7.67,32.69,3.83,80.41,7.55,98.08,11.5,17.67,3.95-6.14,8.9-12,9.39-49.07,4.07-98.13,8.15-147.2,12.22,26.18,6.44,54.83,11.67,78.55,19.32s-7.83,11.2-15.05,12.27c-45.92,6.78-192.75,6.88-195.86,2.23-3.12-4.65,43.69-8.2,47.69-8.73-64.85-7.75-141.01,9.24-195.48-.26-54.47-9.5,1.56,8.42-3.53,11.98-50.03,14.41-159.36-.6-160.04-8.48ZM901.98,288.92c-1.7-.75-4.07-1.36-5.36-1.36-1.36,0-1.97-.2-1.43-.54s-.27-.88-2.31-1.56c-1.7-.61-3.12-.95-3.12-.75,0,.81.41,1.29.95,1.09.34-.14.41.34.14.95-.34.95-.27,1.02.61.27.75-.61,1.02-.61,1.02-.07,0,.48.34.61.68.41.41-.2.68-.2.68.14,0,.27.95.95,2.1,1.49,1.83.81,2.24.81,2.71,0,.41-.61.61-.68.61-.14,0,.68,1.49,1.09,5.09,1.43.41,0-.68-.54-2.38-1.36h0ZM839.55,256.9c0-.14-1.09-1.09-2.44-2.1-1.83-1.43-2.65-1.63-3.19-1.09-.95.95.54,2.17,1.9,1.7.41-.2,1.22.14,1.7.75.75.95,2.04,1.43,2.04.75h0ZM833.78,253.16c.41-.75-3.6-3.8-4.21-3.19-.27.2-.14.41.27.41.34,0,1.02.75,1.43,1.7.81,1.76,1.76,2.17,2.51,1.09Z"/>
      <polygon class="st14" points="804.06 38.75 883.68 50.91 945.2 100.87 921.07 123.99 874.63 154.07 820.95 107.13 804.06 59.96 804.06 38.75"/>
      <path class="st9" d="M829.43,106.72s7.8,10.3,30.12,8.91c22.32-1.39,25.94-8.84,24.13-14.77s-8.04-17.48-5.43-27.03c2.61-9.55,20.77-12.08,36.79-9.05,16.02,3.03,36.79,36.08,36.79,36.08l-58.87,41.33-18.34,11.88-45.2-47.35Z"/>
      <polygon points="929.92 123.99 983.6 78.68 1026.43 46.25 1059.6 38.75 1105.48 52.62 1149.48 92.24 1205.57 129.09 1234.52 157.95 1197.13 174.42 1068.65 186.53 904.44 174.42 873.32 167.43 929.92 123.99"/>
      <polygon class="st17" points="813.23 127.65 851.51 130.08 869.6 155.03 857.54 163.61 809.3 150.36 813.23 127.65"/>
      <polygon class="st17" points="1214.44 127.65 1295.44 127.65 1275.48 150.36 1234.52 161.19 1214.44 127.65"/>
      <path class="st26" d="M1013.7,175.21c-3.39-.14-6.78-.3-10.17-.47-12.22-.64-24.42-1.52-36.6-2.66-12.18-1.14-24.34-2.53-36.46-4.16-6.06-.82-12.12-1.7-18.16-2.65-3.02-.47-6.04-.96-9.06-1.46-1.26-.21-2.62-.3-3.78-.85-.91-.44-1.67-.91-2.65-1.2-3.55-1.03-7.13-1.95-10.69-2.92,9.54-.64,13.51-13.63,22.59-16.65,4.01-1.34,8.4-.49,12.61-.89s8.93-2.96,9.13-7.18c1.77.96,2.73,3.21,2.2,5.15,5.66,3.11,12.87,3.21,18.62.26-2.81,4-2.31,9.99,1.13,13.47s9.43,4.04,13.45,1.26c1.3-.9,2.41-2.09,3.85-2.74,1.45-.65,3.08-.69,4.67-.72,3-.05,6-.1,9-.15,1.43-.02,2.93-.03,4.21.61,1.63.82,2.58,2.54,3.91,3.78,3.13,2.9,8.63,2.66,11.49-.51.76-.84,1.39-1.87,2.43-2.32,2.09-.9,4.21,1.03,5.83,2.62,9.17,9.03,23.7,12.13,35.75,7.64,9.43-3.52,17.69-11.28,27.75-11.05,8.56.19,15.73,6.16,22.42,11.5,1.38,1.11,3.05,2.26,4.77,1.86,3.19-.74,2.94-5.24,3.5-8.47.97-5.53,7.2-9.5,12.62-8.04,3.77,1.01,8.33,3.96,10.92,1.03.82,3.39,3.93,6.1,7.4,6.45s7.06-1.67,8.55-4.82c7.68,2.58,14.25,8.3,17.88,15.54,17.59-2.9,35.18-5.8,52.77-8.71-9.12,4.42-19.26,6.19-29.27,7.74-12.03,1.86-24.1,3.47-36.19,4.83-12.16,1.37-24.34,2.49-36.54,3.35s-24.42,1.48-36.65,1.85-24.46.48-36.7.35c-8.84-.1-17.68-.33-26.51-.69ZM1121.71,163.08c5.23-5.84-.68-14.66-8.35-12.35-4.89,1.49-7.19,7.74-4.41,11.94,1.56,2.38,3.46,3.12,7.46,2.78,2.78-.2,3.73-.61,5.29-2.38Z"/>
      <polygon class="st21" points="1345.21 108.67 1323.49 175.95 1255.33 255.32 1148.57 294.9 977.15 304.36 881.37 277.3 809.3 227.84 766.76 174.42 758.92 134.95 789.08 150.36 911.52 174.42 932.03 191.65 1018.89 246.54 1203.46 221.21 1298.76 157.95 1308.41 123.99 1345.21 108.67"/>
      <path class="st2" d="M961.81,248.64c-10.99-5.23-20.29-10.59-26.53-15.34-3.05-2.31-6.72-4.89-8.14-5.63-2.04-1.09-10.02-19.8-11.14-23.28-.32-.99-.59-2.28-1.07-4-1.63-5.97-2.04-6.72-3.6-6.99-.95-.2-6.31-1.15-11.94-2.1-5.56-1.02-12.76-2.38-15.95-3.05-12.96-2.92-42.55-10.38-45.46-11.54-1.7-.68-6.85-2.31-11.47-3.66-19.14-5.7-45.27-17.33-51.16-22.6-1.91-1.25-3.42-1.28-4.1-3.11-1.22-3.05-3.13-5.27-1.84-8.32,1.56-3.73,7.02-5.14,11.83-6.15,3.6-.81,10.89-.91,10.89-.23,0,.2,2.28,2.41,1.33,3.56-1.49,1.76-1.7,2.58-1.43,4.82.47,3.46,2.1,5.56,6.65,8.69,8.01,5.43,34.88,15.54,56.25,21.17,7.26,1.9,43.16,9.91,44.45,9.91.2,0,.34.48.34,1.02,0,1.56-1.97,1.29-17.58-2.04-8.69-1.83-15.95-3.05-18.66-3.05-2.51,0-4.48-.27-4.48-.68,0-.34-.88-.68-2.04-.68-1.56,0-2.04-.34-2.04-1.29,0-1.02-.68-1.29-3.19-1.63-3.66-.41-7.67.14-7.67.95,0,.34-.81.61-1.83.61-2.65,0-1.15.95,3.53,2.24,3.87,1.09,34.34,8.55,40.85,9.98,5.77,1.36,29.79,5.36,37.86,6.38,45.94,5.9,101.85,9.09,144.88,8.28,23.55-.41,51.84-1.76,65.14-3.12,47.98-4.95,69.69-8.82,100.36-18.05,26.8-8.08,46.64-16.82,67.88-28.63,5.02-2.85,8.2-5.45,9.64-6.16s1.38-1.34,4.44-3.24c0,0-1.34,9-1.82,9.95-3.39,6.79-17.98,27.96-27.35,39.63-11.26,14.11-33.18,34.2-48.31,44.31-19.61,13.1-36.58,21.1-64.13,30.33-23.89,7.94-46.55,12.69-70.84,14.66-8.08.61-24.36.75-31.62.2h0c-8.35-.61-24.36-2.44-31.89-3.66-15.2-2.38-26.53-5.5-44.79-12.35-6.51-2.44-12.49-4.55-13.23-4.75,0,0-13.82-5.59-21.04-11.33Z"/>
      <path class="st7" d="M936.27,125.77c.36-.34.73-.68,1.1-1.01,4.51-3.95,10.1-6.72,16.04-7.66.71-.11,1.43-.2,2.15-.26,2.31-.19,4.85-.21,6.57-1.76,1.9-1.71,2.03-4.57,2.5-7.08,1.81-9.74,11.36-17.43,21.26-17.11,2.58.08,5.39.59,7.57-.78,2.77-1.74,3.14-5.5,3.9-8.68,2.88-12.06,16.49-20.41,28.55-17.51,1.48.35,3.05.85,4.47.31,2.1-.79,2.79-3.32,3.56-5.42,4.44-12.17,21.62-17.42,32.1-9.79,3.09,2.25,5.93,5.5,9.75,5.65,3.33.14,6.22-2.17,9.44-3.05,8.43-2.31,16.6,6.04,18.04,14.66.73,4.35.67,9.54,4.26,12.12,3.16,2.27,7.52,1.24,11.34,1.96,8.32,1.58,12.46,10.78,15.27,18.78,7.32-.96,16.22-1.27,20.45,4.78,3.48,4.98,2.26,12.61,6.82,16.63,4.83,4.25,12.34,1.45,18.71,2.35,10.67,1.52,16.56,13.13,19.27,23.56,9.14-2.41,16.17,9.95,25.62,10.24-20.92,5.65-42.27,9.71-63.8,12.13-3.12-6.81-9.18-12.21-16.3-14.53-1.8.46-3.61.93-5.41,1.39,5.59-2.16,5.72-11.72.19-14.04-5.53-2.31-12.25,4.49-9.87,9.99-2.62.57-4.91,2.49-5.91,4.98-1.21-5.18-8.22-7.94-12.63-4.98-4.41,2.96-4.51,10.5-.18,13.58-1.69-.54-3.14-1.78-3.95-3.36.16,3.51-4.04,5.89-7.5,5.3s-6.24-3.09-8.89-5.39c-4.41-3.83-9.43-7.54-15.26-7.91-7.89-.5-14.64,5.14-21.74,8.61-13.95,6.82-31.7,5.03-44-4.45-1.62-1.25-3.2-2.69-4.01-4.57-.73-1.72-.76-3.66-1.38-5.42-1.41-4-6.2-6.46-10.27-5.27-4.08,1.19-6.8,5.83-5.84,9.96-7.45-.07-14.91.49-22.26,1.67,5.61-4.27,4.69-14.46-1.59-17.66-6.28-3.2-15.06,2.06-15.21,9.11,0-.19-5.46-1.18-5.99-1.29-2.04-.44-4.08-.88-6.11-1.32s-4.08-.88-6.11-1.32c-.99-.21-2.09-.32-3.05-.66-.81-.28-.42-.89-.22-1.58,1.56-5.29,4.61-10.08,8.59-13.88ZM1179.26,154.33c2.99-1.49,5.43-5.09,5.43-8.08s-2.17-7.33-4.27-8.62c-2.78-1.83-6.79-2.04-9.77-.48-5.56,2.78-7.53,7.67-5.09,12.62,2.38,4.95,8.75,7.06,13.71,4.55ZM1040.01,152.56c9.57-4.82,7.8-19.34-2.65-22.12-6.99-1.9-14.18,3.94-14.18,11.47,0,5.43,3.12,9.57,8.48,11.47,3.19,1.09,4.89.95,8.35-.81h0ZM1094.03,145.78c3.33-1.36,5.16-4.34,5.16-8.35,0-5.36-3.19-8.35-9.02-8.35-3.53,0-6.31,1.83-7.67,5.16-3.39,8.08,3.46,14.93,11.54,11.54h0ZM993.12,132.41c2.17-2.04,4.27-6.18,4.27-8.35,0-7.4-7.67-12.49-14.52-9.64-4.41,1.83-6.85,7.8-5.23,12.76,2.1,6.45,10.92,9.43,15.47,5.23h0ZM1127.55,126.98c2.99-1.02,4.21-4.82,2.58-8.01-1.97-3.8-6.17-4.48-9.23-1.43-2.58,2.58-1.22,8.08,2.31,9.5q1.9.81,4.34-.07h0ZM1058.88,121.69c8.28-3.73,8.41-15.4.27-19.61-9.3-4.75-19.07,5.36-14.25,14.79,1.36,2.65,2.65,3.73,6.45,5.23,2.85,1.09,4.34,1.02,7.53-.41ZM1098.64,108.05c4.75-1.36,7.87-7.13,6.51-12.01-2.17-8.08-11.6-10.25-17.44-4.07-3.87,4.21-1.97,12.62,3.53,15.34,3.26,1.63,3.94,1.7,7.4.75h0ZM1024.61,105.13c3.46-2.38,5.5-6.24,5.16-10.11-.75-8.55-9.16-13.23-16.35-9.16-7.19,4-7.26,14.93-.14,19.14,3.66,2.24,8.14,2.31,11.33.14ZM1061.05,87.69c6.58-4,6.51-13.03-.07-17.91-2.78-2.04-8.21-1.97-11.26.2-4.75,3.39-5.97,10.45-2.65,15.2,2.78,3.87,9.7,5.09,13.98,2.51Z"/>
      <path class="st24" d="M1013.51,201.44c-7.67-.34-18.66-.95-24.43-1.36-5.77-.41-12.96-.88-15.95-1.09-37.32-2.44-75.86-7.53-99.07-13.1-4.48-1.09-13.5-3.26-20.02-4.82-15-3.6-21.17-5.5-21.58-6.72-.2-.54.7-3.05,1.51-3.73s4.26-1.23,5-1.29c2.58-.14,1.63-1.09-2.31-2.24-5.23-1.49-24.97-8.82-26.53-9.77-1.43-.95-2.85-1.43,12.35,4.07,13.1,4.75,32.16,10.04,49.2,13.71,41.33,8.75,60.39,11.6,107.55,15.81,13.3,1.22,46.08,2.38,66.84,2.38,55.98,0,105.38-4.14,144.88-12.21,20.56-4.21,26.94-5.7,38.34-8.96,48.38-13.71,73.35-26.74,102.46-53.4,2.99-2.71,5.43-4.55,5.43-4,0,.47.36,9.32.36,9.32,0,0-.47.44-12.89,11.23-7.87,6.85-15.9,12.49-24.11,17.03-22.12,12.21-41.66,20.29-68.6,28.36-30.67,9.23-52.39,13.1-100.36,18.05-24.84,2.51-87.54,4-118.07,2.71h0Z"/>
      <path class="st25" d="M1223.39,174.99l1.6,7.57s-9.69,31.57-20.1,52.09c-10.41,20.52-27.08,39.79-31.34,44.92-4.25,5.12-84.47,24.78-84.47,24.78l100.53-127.03,33.78-2.33Z"/>
      <path class="st16" d="M1028.14,313.76c-48.18-1.97-90.93-8.89-125.2-20.29-27.48-9.09-54.35-23.21-75.86-39.56-8.01-6.11-23.07-20.15-30.88-28.84-12.83-14.11-25.85-33.52-35.29-52.45-8.75-17.58-10.52-23.28-10.52-33.39.07-6.45.2-7.26,2.24-11.4,3.87-7.94,11.47-12.08,24.16-13.1,8.01-.68,24.84.14,34.54,1.63,9.16,1.36,9.57,1.36,8.41-.27-15-21.04-23.21-38.48-28.3-60.12-2.1-8.82-4.21-21.44-4.21-25.31,0-3.6,1.02-3.87,15.13-4.14,25.51-.47,48.38,3.12,72.54,11.4,28.77,9.84,49.54,22.33,70.1,42.21l7.46,7.19,3.26-3.6c1.76-1.97,4.82-4.48,6.79-5.63,3.8-2.17,11.81-4.82,14.45-4.82,1.43,0,2.04-.75,3.66-4.41,6.65-14.79,17.03-22.19,32.71-23.21l5.97-.41,2.04-3.19c2.58-4.07,8.41-9.57,11.94-11.4,5.84-2.99,9.98-3.66,20.15-3.39,10.25.27,12.96.95,19.2,4.41,3.12,1.76,3.66,1.83,11.26,1.63,5.9-.14,8.96.14,11.88.95,10.86,3.12,19.41,11.47,22.66,22.05,1.36,4.55,1.42,4.61,4.14,5.02,4.89.81,10.11,3.87,15.13,8.89,2.65,2.58,5.36,5.97,6.17,7.46,1.22,2.51,1.63,2.71,5.02,3.26,8.82,1.22,17.37,8.01,22.12,17.58l2.51,5.02,7.19,1.15c8.62,1.36,13.5,3.6,19.48,8.82l4.21,3.66,21.24.47c22.66.47,41.05-.27,50.49-1.97,17.64-3.32,36.37-11.47,56.32-24.63,13.1-8.55,19.41-12.54,23.41-12.54,2.58,0,2.72,1.07,3.12,2.7.61,2.38-.81,22.8-2.17,32.1-2.85,19.27-9.5,39.7-18.86,58.36-8.21,16.22-17.3,30.94-24.7,39.76-2.1,2.58-5.09,6.24-6.58,8.08-1.42,1.9-7.13,7.94-12.55,13.44-25.31,25.85-62.63,48.25-102.46,61.48-17.3,5.77-45.74,12.01-64.8,14.25-2.99.34-9.36,1.09-14.25,1.7-19.27,2.24-34.68,3.19-56.32,3.39-12.28.14-24.97.14-28.16,0h0ZM1091.25,293.47c68.94-5.63,118.89-21.24,158.04-49.26,11.47-8.21,17.78-13.57,27.75-23.55,14.79-14.93,24.56-27.14,33.73-42.21,4.61-7.53,12.69-24.09,16.29-33.18,2.58-6.79,7.94-25.24,7.4-25.79-.14-.2-1.9,1.22-3.87,3.12-9.5,9.23-25.38,20.36-39.83,27.89-28.64,15.06-77.49,28.91-126.21,35.76-38.54,5.43-77.02,7.46-127.23,6.92-40.85-.48-49.88-1.02-87.2-4.95-27.28-2.85-46.41-5.9-74.3-11.88-28.36-6.04-45.13-10.86-64.13-18.39-17.91-7.13-24.56-11.81-25.51-17.91-.27-1.97-.14-4.07.27-5.29.47-1.09.68-2.17.47-2.31-.14-.14-1.97-.07-4,.14-5.16.68-10.45,3.53-12.15,6.58l-1.36,2.38,5.29,11.81c2.99,6.45,5.84,12.35,6.45,13.03,1.56,1.9,52.25,18.8,72.61,24.23,36.85,9.77,94.32,19.07,141.82,22.8,23.41,1.83,39.09,2.38,70.57,2.38,37.12,0,61.95-1.02,96.7-3.8,6.72-.54,15.47-1.22,19.54-1.43l7.26-.41v2.38c0,2.71-.2,2.85-8.48,5.23-27.48,7.94-69.69,14.93-102.13,16.96-43.84,2.78-97.04.48-140.13-6.11-24.36-3.66-63.92-11.67-81.77-16.49-14.45-3.87-37.19-10.52-48.38-14.11-5.9-1.83-10.86-3.26-10.99-3.12-.68.68,13.23,15.54,16.01,17.1,3.19,1.76,25.79,8.35,42.68,12.35,5.43,1.29,15.81,3.87,23.07,5.7,15.47,3.87,28.98,6.72,57.2,11.94,21.99,4.07,23.07,4.27,37.46,8.08,5.23,1.36,10.65,2.78,12.08,3.12,2.31.61,2.51.88,2.51,3.12v2.44l-24.23-.41c-25.72-.48-40.38-1.49-60.26-4.27-12.83-1.76-41.05-7.26-51.71-10.04-3.46-.88-6.31-1.56-6.31-1.43,0,.41,12.35,8.55,19.34,12.76,8.41,4.95,24.36,12.62,34.4,16.35,31.62,11.81,75.19,20.43,115.36,22.8,14.79.88,60.53.27,75.86-1.02h0ZM1097.69,172.97c21.31-1.24,42.58-3.28,63.74-6.12,17.83-2.39,35.61-5.35,53.01-9.93-4.42-5.72-11.7-9.11-18.93-8.79-.24-12.2-11.06-23.25-23.26-23.73-4.87-.19-10.37.91-14.13-2.18-4.81-3.93-3.4-11.88-6.96-16.97-4.21-6.02-13.09-5.6-20.36-4.54-3-8.02-7.28-17.18-15.66-18.88-3.92-.8-8.48.15-11.59-2.37-2.67-2.17-3.1-6-3.59-9.4-.63-4.37-1.76-8.83-4.52-12.28s-7.49-5.62-11.69-4.28c-2.09.67-3.87,2.12-5.96,2.78-8.67,2.75-15.59-8.42-24.57-9.88-5.3-.87-10.67,1.93-14.29,5.91-3.61,3.98-5.79,9.02-7.91,13.96-13.67-5.48-31.16,3.79-34.32,18.17-.63,2.86-1.12,6.34-3.79,7.55-1.54.7-3.33.35-5.01.19-10.98-1.07-22.03,7.53-23.68,18.44-.28,1.82-.38,3.81-1.58,5.21-1.5,1.75-4.1,1.88-6.4,2.11-13.95,1.41-26.49,12.1-30.08,25.66-7.48-3.03-16.57-1.6-22.77,3.57-4.67,3.9-8.07,9.88-13.96,11.41,1.22-.32,4.01.91,5.26,1.19,1.69.38,3.21.87,4.81,1.44,3.44,1.24,7.3,1.56,10.92,2.15,8.05,1.31,16.11,2.5,24.19,3.57,16.16,2.15,32.39,3.84,48.65,5.06,32.52,2.45,65.18,3.04,97.76,1.78,5.55-.22,11.1-.48,16.64-.81ZM849.95,145.47c-2.99-2.1-6.58-4.95-8.08-6.45-2.71-2.58-2.85-2.65-7.8-2.65-2.78,0-8.55-.34-12.83-.68-4.27-.41-7.87-.61-8.01-.48-.61.68,37.66,13.5,41.46,13.98.27.07-1.83-1.63-4.75-3.73h0ZM1256.28,142.89c6.04-1.97,12.89-4.55,15.13-5.77l4.07-2.17-3.73.41c-2.04.2-13.44.54-25.24.81l-21.51.41,1.09,1.9c.81,1.36,1.9,2.1,3.6,2.38,5.9.95,10.45,2.44,12.42,4,1.22.95,2.38,1.7,2.65,1.7.2,0,5.43-1.63,11.54-3.66h0ZM884.89,135.83c5.63-4.82,7.87-6.24,13.03-8.28l4.61-1.76-4.89-4.82c-5.84-5.7-20.02-17.91-23.95-20.63-2.71-1.83-8.87-5.1-18.07-4.8-9.19.3-21.66,1.31-21.66,1.31,0,0,14.62-7.8,35.63-5.43.81-.41-16.43-13.01-26.74-20.21-2.38-1.63-26.96-18.8-25.33-18.8,2.17,0,23.11,7.77,31.87,13.27,4.14,2.65,21.72,14.37,25.05,17.01,15.54,12.21,23.89,23.37,21.24,15.74-1.65-19.77-14.82-34.16-14.82-34.16,0,0,13.97,7.44,29.14,42.92.81,2.04,2.58,5.09,4,6.72l2.58,2.99,5.09-5.02c3.53-3.6,6.58-5.9,10.31-7.87l5.36-2.71-5.7-5.7c-24.02-24.23-58.63-41.26-96.29-47.36-8.48-1.36-20.76-2.78-24.43-2.78-2.44,0-2.51-.54,2.44,14.59,7.13,21.92,18.46,41.12,32.23,54.69,7.94,7.8,15.61,13.77,23.34,18.25,3.66,2.1,11.26,5.97,11.88,6.04.14.07,1.97-1.43,4.07-3.19h0Z"/>
    </g>
    <g id="Mirchi">
      <g>
        <path class="st3" d="M989.57,328.99c-.73-1.27-2.14-1.84-3.07-1.31-3.24,1.87-2.93-1.08.7-6.26,1.92-2.81,6.33-7.97,9.89-11.41,3.56-3.44,7.15-7.36,8.09-8.68.94-1.31,5.01-5.2,8.86-8.66,4.04-3.41,10.6-9.66,14.76-13.92,10.59-10.74,17.07-12.32,21.08-5.39,2,3.47,1.86,4.01-1.98,7.77-2.37,2.29-5.6,5.24-7.43,6.6-4.96,3.94-23.61,22.88-23.77,24.2-.21,1.51-14.01,12.56-20.48,16.3-4.51,2.6-5.51,2.72-6.65.76Z"/>
        <path class="st3" d="M1075.38,246c-2.92,1.07-3.84.83-5.44-1.94-2.94-5.08-2.85-7.6.16-9.33,1.5-.87,2.51-2.06,2.17-2.64-.67-1.16,6.28-9.94,9.16-11.61,1.04-.6,1.7-1.6,1.3-2.29-.33-.58.6-1.89,2.11-2.76,1.62-.93,2.97-2.33,2.91-3.22.01-.78,1.3-2.29,2.91-3.22,1.5-.87,2.51-2.06,2.17-2.64-.73-1.27,3.98-5.38,15.96-13.99,8.36-6.06,18.39-17.25,17.26-19.21-.33-.58,2.5-3.14,6.05-5.8,7.55-5.6,8.99-5.5,12.8,1.08,2.74,4.74,4.54,15.87,2.69,16.93-.81.47-1.08,1.86-.7,3.33,1.28,4.35-7.46,11.09-27.69,21.69l-17.91,9.27-5.51,7.8c-3.03,4.37-6.37,8.45-7.41,9.05-1.16.67-1.75,1.78-1.41,2.36.67,1.16-4.81,4.47-11.58,7.15h0Z"/>
        <path class="st3" d="M1155.45,158.16c-.66-.08-2.34-2.19-3.68-4.5-2.87-4.97-1.87-11.24,2.17-13.58,1.5-.87,2.62-2.13,2.45-2.96-.34-1.65,10.39-12.16,15.82-15.3,7.28-4.2,11.3-3.91,14.17,1.06,2.2,3.81,2.14,4.77-.29,8.03-1.61,2.01-2.98,4.18-3.12,4.73-.08.66-4.02,4.78-8.76,9.37-8.58,8.35-16.5,13.84-18.76,13.14Z"/>
      </g>
      <g>
        <path class="st1" d="M1221.47,130.81c-1.77-2.52-2.97-2.75-5.88-1.38-1.98.84-4.69,1.48-5.79,1.18-3.01-.42-8.52-10.49-8.04-14.46.26-1.69.33-3.43.13-3.77s-3.81-.73-8.11-.71c-7.3-.1-7.91-.36-10.51-4.87-3.27-5.66-2.68-6.77,6.91-12.31,4.51-2.6,11.07-4.85,19.51-6.49,12.93-2.69,16.18-4.26,25.82-12.91,3.07-2.69,3.36-2.71,5.3.64,1.73,3,1.51,4.21-1.8,8.9-2.09,3.05-4.26,5.7-4.95,6.1-.58.33-.62,1.59.11,2.86.67,1.16.79,3.24.29,4.76-.57,1.41-1.47,7.32-1.96,13.15-.54,6.01-1.12,11.13-1.27,11.67-.26.61-.17,2.1.03,3.52.34,1.65-.83,3.1-3.6,4.7-3.47,2-4.24,1.99-6.19-.58Z"/>
        <path class="st1" d="M1288.08,53.52c-.33-.58-1.91-.9-3.38-.51s-3.18-.17-3.71-1.09c-.6-1.04-2.21-.88-4.4.38-2.77,1.6-3.73,1.54-4.87-.42-1.27-2.2-.87-2.58,8.66-7.16,10.75-5.13,15.12-5.03,18.26.4,1.47,2.54,1.14,3.04-4.18,6.11-3.12,1.8-6.04,2.87-6.38,2.3Z"/>
      </g>
      <g>
        <path class="st18" d="M1230.81,98.15c-1.59-.62-2.11-1.25-1.52-2.36.38-.68.22-2.28-.45-3.44-.73-1.27.15-3.48,2.39-6,1.78-2.26,3.98-5.38,4.78-6.92q1.26-2.89-1.4-1.35c-5.31,3.07-2.28-.22,8.86-9.74,12-10.17,18.16-14.18,34.37-21.85,9.53-4.58,10.06-4.73,7.67-1.66-2.43,3.25-2.48,3.44.34,2.73,1.65-.34,3.28-.2,3.61.38s1.57.32,2.66-.46c1.32-.92,1.56-1.83.5-2.6-1.01-.96-.75-1.57.95-2.09,3.92-1.49,7.79,5.21,5.65,9.52-2.03,3.95-8.16,6.41-9.56,3.98-.53-.92-3.74-.61-7.79.65-8.74,2.74-21.67,13.44-33.58,28.02-8.97,10.88-13.95,14.53-17.5,13.19h0Z"/>
        <path class="st18" d="M1222.34,85.63c1.6-1.23,4.14-2.7,5.78-3.34,1.52-.57.27.46-2.97,2.33s-4.52,2.3-2.81,1.01Z"/>
      </g>
      <path class="st23" d="M972.47,352.73c-1.07-1.85,8.84-22.05,15.92-32.46,3.68-5.36,10.78-13.62,15.64-18.28,27.39-25.68,35.39-33.69,50.74-50.87,9.24-10.42,21.46-25.8,27.3-34.1,12.66-18.1,14.45-20.06,26.86-29.53,10.18-7.73,20.81-19.72,31.05-35.34,6.46-9.89,19.48-24.96,26.65-30.95,2.74-2.2,4.05-4.19,3.45-5.23-1.33-2.31,1.87-3.7,10.37-4.45,4.1-.37,9.15-.97,11.4-1.34,3.62-.4,4.19.05,7.39,5.59,1.94,3.35,4.4,9.48,5.47,13.48,1.08,4,3.2,9.55,4.81,12.32,3.8,6.59,3.19,14.33-1.77,22.28-2.12,3.53-5.33,10.78-6.86,16.13-2.79,9.31-3.23,9.88-10.57,15.04-5.56,3.98-9.22,7.79-13.44,14.08-3.06,4.85-6.94,9.86-8.52,11.39-1.53,1.35-2.8,3.16-2.81,3.94s-2.75,2.97-5.99,4.84c-4.51,2.6-7.37,5.64-11.64,12.12-4.7,7.34-6.79,9.32-13.26,13.05-7.05,4.07-8.52,4.46-15.85,3.76-4.39-.39-8.69-.37-9.5.09s-3.31,3.61-5.5,7.03c-2.79,4.23-5.96,7.29-10.23,9.76-4.85,2.8-6.88,4.9-9.77,10.57-7.19,13.7-10.17,16.81-25.56,26.17-9.34,5.7-16.59,9.43-21.23,10.72h0c-8.99,2.57-13.82,2.74-15.75.47-1.41-1.65-2.11-1.25-10.68,6.32-4.99,4.42-11.16,9.22-13.47,10.55-2.36,1.52-3.99,3.23-3.66,3.81.4.69-2.68,3.09-6.96,5.56-7.39,4.27-12.82,5.55-14.02,3.47"/>
      <path class="st23" d="M999.08,321.15c1.18-1.13,2.27-2.27,2.95-2.83,1.19-.97,2.38-1.94,3.45-3.03.53-.53,1.03-1.1,1.55-1.64.74-.78,1.5-1.53,2.27-2.28,11.65-11.44,23.3-22.89,34.94-34.33.2-.2.4-.4.52-.64.51-1.02-.66-2.22-1.79-2.21s-2.11.78-2.98,1.51c-10.55,8.85-20.65,18.25-30.23,28.14-4.79,4.95-9.45,10.02-13.98,15.2-1.13,1.3-5.4,5.69-1.18,5.28,1.16-.11,2.9-1.63,4.49-3.15Z"/>
      <path class="st23" d="M1081.71,237.46c.34-1.12,1.08-2.06,1.81-2.97,1.73-2.17,3.46-4.34,5.19-6.52,3.19-4,6.41-8.04,10.34-11.32,6.83-5.7,15.38-8.79,23.37-12.69,3.02-1.47,5.98-3.08,8.71-5.04,3.35-2.41,6.3-5.34,9.23-8.25.79-.79,1.65-1.91,1.14-2.91-.16-.32-.45-.56-.59-.89-.61-1.37,1.51-2.42,1.87-3.88.14-.57,0-1.17-.16-1.74-.36-1.4-.73-2.8-1.09-4.2.72-2.01,1.3-4.41.04-6.14-1.45-2-4.67-1.84-6.66-.38s-3.12,3.79-4.33,5.95c-4.41,7.86-10.91,14.52-18.66,19.12-1.37.81-2.82,1.6-3.76,2.89-.52.72-.87,1.59-1.56,2.15-1.32,1.06-3.65.85-4.32,2.4-.22.52-.19,1.13-.5,1.6-.59.89-2.01.72-2.82,1.42-.49.42-.68,1.07-.93,1.66-.57,1.32-1.53,2.43-2.48,3.51-3.59,4.11-7.19,8.21-10.78,12.32-2.44,2.78-4.9,5.61-6.52,8.93-.71,1.44-1.33,3.08-2.72,3.89-.78.46-1.9.83-1.89,1.73,0,.76.7,1.93,1.02,2.57,1.76-.28,3.51-.83,5.24-1.28.49-.13,1-.27,1.33-.66.29-.35.36-.82.5-1.27Z"/>
      <path class="st23" d="M1161.62,149.36c-.4-.69.44-1.64,1.91-2.03,1.47-.39,2.38-1.22,1.98-1.91s.51-1.52,1.98-1.91,2.38-1.22,1.98-1.91.51-1.52,1.98-1.91,2.38-1.22,1.98-1.91.51-1.52,1.98-1.91c1.47-.39,2.44-1.1,2.18-1.57s.98-2.57,2.71-4.65,2.98-4.18,2.71-4.65c-1-1.73-9.09,0-10.63,2.13-.82,1.24-2.07,2.28-2.6,2.43-1.93.65-8.58,8.35-7.98,9.39.27.46-.74,1.66-2.35,2.59-1.5.87-3.15,3.36-3.73,5.54-.89,4.06-.7,5.18,1.23,5.6,2,.54,5.5-1.94,4.7-3.33Z"/>
      <path class="st6" d="M1022,342.46c-3.8,1.42-10.44,4.33-14.68,6.32-5.81,2.74-11.12,3.96-20.1,4.68-15.53,1.11-17.51-.98-6.55-6.54,4.18-2.1,7.56-4.52,7.41-5.05-.1-.71,2.96-3.41,6.92-6.15,3.91-2.57,7.14-5.51,7.2-6.47.06-.96,1.31-1.99,2.97-2.33,1.77-.41,2.56-1.17,2.03-2.09-.47-.81.55-1.71,3.13-2.58,2.16-.79,3.53-1.89,3.2-2.46s1.5-1.94,4.06-3.11c2.44-1.1,5-2.27,5.58-2.61.64-.22.88.72.61,2.12-.66,3.93,3.89,4.07,15.51.44,7.04-2.22,12.32-4.81,18.99-9.27,9.77-6.57,13.95-11.6,20.07-23.14,2.95-5.56,4.91-7.77,9.65-10.5,4.27-2.47,7.6-5.78,11.56-11.46,6.49-9.3,9.29-10.6,20.82-9.56,10.46,1.04,14.85-1.49,22.07-12.74,4.27-6.47,7.14-9.52,11.64-12.12,3.24-1.87,5.97-4.07,5.99-4.84s1.28-2.59,2.81-3.94c1.58-1.53,5.46-6.55,8.52-11.39,4.22-6.29,7.88-10.1,13.44-14.08,7.34-5.16,7.78-5.73,10.57-15.04,1.53-5.35,4.74-12.6,6.86-16.13,4.85-7.88,5.7-16.54,2.04-20.75l-1.36-3.68,6.24-3.6,7.51-4.34,3.14,5.43c1.73,3,4.29,8.77,5.55,12.82,2.05,6.21,2.09,7.88.11,9.8-5.42,5.29-10.28,13.95-12.88,23.31-3.75,13.26-6.08,16.15-19.25,23.75q-10.86,6.27-14.71,14.81c-3.33,7.31-5.1,9.57-13.55,16.3-5.29,4.44-15.67,14.75-23.16,23.39-16.12,18.24-22.09,22.31-37.33,25.26-5.44.98-10.6,2.73-11.55,3.74-.89,1.13-3.27,5.28-5.24,9.34-2.7,5.72-5.39,8.81-11,12.98-9.2,7.01-45.55,27.85-54.83,31.51Z"/>
      <g>
        <path class="st20" d="M1223.15,160.66c-2.12-.47-3.68-4.5-2.18-5.37.92-.53.54-3.86-.98-8.37-3.22-9.85-4.41-11.63-6.49-10.43-1.16.67-2.4-.15-3.67-2.35-2.14-3.7-.36-5.96,7.27-9.28,3.78-1.72,4.81-1.54,6.56.68,1.81,2.34,2.21.88,3.06-10.7,1.08-16.8,2.71-22.52,5.91-22.05,1.76.37,3.96-1.67,9.2-8.08,12.79-16.01,30.3-29.98,41.86-33.42,6.05-1.8,6.71-1.72,8.51,1.4,2.2,3.81,1.25,4.83-4.45,4.57-7.38-.51-28.9,16.38-39.67,31.08-8.29,11.26-11.29,21-10.81,34.9.23,6.8-.77,17.08-2.1,22.78-2.23,8.68-3.24,10.66-6.71,12.66-2.31,1.33-4.71,2.26-5.32,1.99h0Z"/>
        <path class="st20" d="M1196.84,120.7c-2.11-5.25-2.42-5.53-6.28-5-12.16,1.63-19.62,1.78-20.42.39-1.67-2.89,3.52-9.12,14.42-17.72,1.55-1.05,2.13-1.38,1.64-.64-.61.81-.83,2.02-.43,2.72s.26,2.32-.43,3.79c-.88,2.21.14,2.38,8.2,2.2,8.89-.36,9.5-.09,11.83,3.95,2.8,4.85,1.29,11.58-3.33,14.25-2.66,1.53-2.91,1.37-5.2-3.93h0Z"/>
      </g>
      <g>
        <path class="st13" d="M980.44,347.05c.91-.83,2.75-1.9,4.04-2.34,1.24-.25.45.51-1.75,1.78s-3.25,1.57-2.3.56Z"/>
        <path class="st13" d="M1042.47,305.07c-1.64.64-3.39.26-3.93-.66-.67-1.16.57-2.48,4.84-4.95,4.97-2.87,5.98-2.99,7.11-1.03,1.33,2.31-.82,4.17-8.03,6.64Z"/>
        <path class="st13" d="M1054.02,298.39c-2.55.39-4.05-2.75-1.97-3.95.92-.53,1.4-1.58,1-2.27-.47-.81.44-1.64,2.44-2.18,1.82-.59,4.72-3.03,6.92-6.15,3.63-5.18,9.52-9.66,10.52-7.93.8,1.39-5.65,12.35-9.7,16.54-4.05,4.19-6.3,5.64-9.21,5.93Z"/>
        <path class="st13" d="M1073.86,269.52c-1.6-2.77.53-11.09,3.19-12.62,1.04-.6,3.74-3.39,6.1-5.99,8.99-10.58,36.37-22.39,39.51-16.96,1.47,2.54,1.7,2.41-10.6,5.66-16.53,4.46-21.58,7.99-29.82,20.92-6.23,9.76-7.23,10.96-8.37,8.99Z"/>
        <path class="st13" d="M1123.87,233.4c-.62-1.34.28-4.32,2.37-7.38,1.86-2.92,3-5.74,2.42-6.48-.63-.56-.04-1.67,1.23-2.41s2.04-1.8,1.64-2.49c-.93-1.62,1.79-3.04,5.17-2.52,2.58.2,2.29,1.3-2.12,10.47-5.16,10.53-8.71,14.27-10.71,10.81Z"/>
        <path class="st13" d="M1154.47,210.34c-.82-1.68-.45-3.44,1.14-4.97,1.24-1.33,3.51-4.34,4.98-6.58,1.41-2.36,3.67-4.58,4.84-4.95,1.47-.39.87,1.5-1.93,5.73-2.12,3.53-4.2,7.66-4.48,9.06-.66,3.93-3.06,4.85-4.56,1.71Z"/>
        <path class="st13" d="M1178.17,167.07c-1.34-.46-3.07-2.39-3.91-4.37-1.25-2.97-.94-3.77,1.94-5.44,3-1.73,3.73-1.54,5.81,1.26,1.61,2,1.97,3.95,1.18,5.79-1.52,3.5-2.28,3.78-5.03,2.75h0Z"/>
        <path class="st13" d="M1154.91,174.03c-7.17-2.02-7.61-3.31-2.93-6.94,2.39-2,4.41-2.24,8.47-1.35,4.49,1.1,5.3,1.71,5.46,4.39.15,4.53-4.06,6.04-11,3.89h0Z"/>
      </g>
      <path class="st4" d="M1203.84,140.84c-1.43-.87-6.47-18.14-5.32-18.81.46-.27,1.53-2.42,2.34-4.74,1.88-5.55-.37-9.18-5.25-8.83-2.13.31-3.77-.13-3.51-.75.54-2,10.53-1.77,12.74.19,1.01.96,1.94,4.43,2.2,7.82.08,3.34.64,6.72,1.11,7.52,1.4,2.43,7,3.05,10.76,1.03,2.49-1.29-.73,2.73-.98,3.65-.36.98-1.48,2.24-2.63,2.91s-1.61,2.01-1.08,2.93c.73,1.27-.39,2.53-4.08,4.67-2.89,1.67-5.63,2.79-6.31,2.41Z"/>
      <path class="st12" d="M1041,335.34c-18.66,8.77-38.01,16.09-45.3,17.07-12.5,1.83-16.21,1.81-17.08.31-1.2-2.08.67-2.85,7.22-3.24,14.36-.74,64.66-24.09,84.5-39.1,6.91-5.38,9.03-7.84,12.11-14.24,5.1-10.65,9.85-14.16,23.21-16.64,5.67-1.12,11.9-2.87,13.87-4,1.85-1.07,9.51-8.88,16.95-17.34,7.49-8.64,17.87-18.95,23.16-23.39,8.44-6.72,10.22-8.98,13.55-16.3q3.85-8.54,14.71-14.81c12.94-7.47,15.84-10.99,18.77-21.93,2.62-10.14,5.18-15.31,10.69-22.04q4.34-5.28,8.29-4.32c3.35.99,3.66,1.27,2.05,2.21-3.47,2-11.03,13.46-13.21,19.8-1.18,3.3-2.55,6.25-3.25,6.65-.58.33-.79,1.84-.4,3.31,1.3,4.64-6.05,12.74-17.49,19.34-10.74,6.21-9.91,5.26-16.28,19.57-1.69,3.75-7.85,9.62-14.37,13.54-2.31,1.33-11.04,10.23-19.55,19.77-17.52,19.82-20.78,22.17-36.82,25.89-12.43,3.02-12.04,2.64-20.31,17.12-3.14,5.51-5.46,7.62-14.42,13.72-19.25,12.81-25.08,16.33-30.59,19.06h0Z"/>
      <path class="st10" d="M1290.4,55.41c-1.46-1.47-2.59-1.28-5.21.85-2.06,1.5-3.58,2.07-4.05,1.26-.87-1.5-5.28.74-5.05,2.46.29,1.84-5.1,6.64-5.9,5.26-1-1.73-3-.12-3.83,2.98-.75,2.44-1.1,2.64-3.47,2-3.65-.98-5.2.07-3.84,2.68.67,1.16.45,1.59-.36.98-.7-.68-2.25-.7-3.29-.1-4.39,2.54-.33-3.51,6.26-9.16,8.64-7.45,16.89-12.37,23.72-14.16,5.77-1.48,8.48-1.05,10.86,1.74,2.06,2.51-3.48,5.71-5.84,3.22h0Z"/>
      <path class="st15" d="M1031.87,343.54c-13.45,4.99-36.3,9.72-38.26,7.92-1.2-1-.52-1.7,2.88-2.74,23.5-7.87,47.32-19.17,65.49-31.2,15.06-9.93,14.11-8.92,24.77-26.48,3.37-5.64,7.13-7.66,21.86-11.24l12.55-3.09,16.07-18.06c8.84-10.04,18.03-19.2,20.16-20.58,6.35-3.67,12.52-9.54,14.2-13.29,6.37-14.31,5.53-13.36,16.16-19.5,12.59-7.27,15.98-11.54,19.91-24.75,2.62-9.06,10.04-21.82,13.97-24.09,2.08-1.2,9.28-1.81,9.88-.77.67,1.16-2.63,7.99-10.79,21.33-4.07,6.82-9.23,15.5-11.35,19.03-2.17,3.72-9.05,11.54-15.19,17.71-18.86,18.29-39.8,39.93-52.18,53.71-9.86,10.93-13.95,14.53-25.61,22.34-7.71,5.07-18.97,13.57-25.28,18.92-13.93,11.9-42.68,28.81-59.23,34.83Z"/>
    </g>
  </g>
  <g id="SubTect">
    <rect class="st22" x="348.24" y="651.52" width="893.64" height="98.51"/>
    <rect class="st22" x="385.15" y="710.23" width="821.75" height="99.35"/>
    <text class="st0" transform="translate(281.49 712.62)"><tspan x="0" y="0">Mangalore’s Finest Flavours,</tspan><tspan x="126.37" y="81.88">delivered to your door</tspan></text>
  </g>
</svg>